<svg xmlns="http://www.w3.org/2000/svg" viewBox="0 0 24 24">
  <rect width="24" height="24" rx="12" fill="#000"/>
  <path fill="#fff" d="M17.66 10.74c-.22-2.44-1.55-3.9-3.7-4.25-1.78-.3-3.32.15-4.5 1.31l1.22 1.25c.8-.75 1.7-1.02 2.73-.82 1.02.2 1.65.86 1.88 1.97-.94-.13-1.89-.14-2.82-.02-2.39.31-3.9 1.59-3.9 3.32 0 1.77 1.48 3.05 3.53 3.05 2.02 0 3.55-1.17 3.95-3.02 1.11.54 1.75 1.4 1.75 2.45 0 1.83-1.85 3.1-4.49 3.1-3.9 0-6.32-2.63-6.32-6.86 0-4.23 2.45-6.86 6.38-6.86 2.74 0 4.54 1.24 5.29 3.64l1.73-.47c-.94-3.16-3.4-4.85-7.02-4.85-4.95 0-8.17 3.39-8.17 8.54s3.22 8.54 8.11 8.54c3.72 0 6.28-1.91 6.28-4.78 0-2.37-1.45-4.18-3.93-5.21Zm-5.45 4.11c-1.06 0-1.82-.55-1.82-1.34 0-.86.88-1.46 2.27-1.58.28-.02.56-.04.84-.04.65 0 1.29.08 1.88.25-.18 1.69-1.37 2.71-3.17 2.71Z"/>
</svg>
